<svg width="56" height="56" viewBox="0 0 56 56" fill="none" xmlns="http://www.w3.org/2000/svg">
<circle cx="28" cy="28" r="28" fill="#FEE2C5" fill-opacity="0.4"/>
<path d="M37.2167 20.95C37.1006 20.9334 36.9827 20.9334 36.8667 20.95C35.6219 20.9093 34.4419 20.3854 33.577 19.4893C32.712 18.5932 32.2301 17.3955 32.2333 16.15C32.2333 13.5 34.3833 11.3334 37.05 11.3334C39.7 11.3334 41.8667 13.4834 41.8667 16.15C41.8631 17.3963 41.3767 18.5926 40.5095 19.4877C39.6424 20.3828 38.4621 20.9069 37.2167 20.95ZM42.6533 32.5C40.7867 33.75 38.17 34.2167 35.7533 33.9C36.3867 32.5334 36.72 31.0167 36.7367 29.4167C36.7367 27.75 36.37 26.1667 35.67 24.7834C38.1367 24.45 40.7533 24.9167 42.6367 26.1667C45.27 27.9 45.27 30.75 42.6533 32.5ZM18.7333 20.95C18.85 20.9334 18.9667 20.9334 19.0833 20.95C20.3281 20.9093 21.5081 20.3854 22.373 19.4893C23.238 18.5932 23.7199 17.3955 23.7167 16.15C23.7167 15.5186 23.5923 14.8933 23.3507 14.31C23.109 13.7266 22.7548 13.1965 22.3083 12.75C21.8618 12.3035 21.3318 11.9494 20.7484 11.7077C20.165 11.4661 19.5398 11.3417 18.9083 11.3417C18.2769 11.3417 17.6516 11.4661 17.0683 11.7077C16.4849 11.9494 15.9548 12.3035 15.5083 12.75C15.0618 13.1965 14.7077 13.7266 14.466 14.31C14.2244 14.8933 14.1 15.5186 14.1 16.15C14.1 18.75 16.15 20.8667 18.7333 20.95ZM18.9183 29.4167C18.9183 31.0334 19.2683 32.5667 19.9017 33.95C17.5517 34.2 15.1017 33.7 13.3017 32.5167C10.6683 30.7667 10.6683 27.9167 13.3017 26.1667C15.085 24.9667 17.6017 24.4834 19.9683 24.75C19.285 26.15 18.9183 27.7334 18.9183 29.4167ZM28.2 34.45C28.056 34.4334 27.9106 34.4334 27.7667 34.45C26.2847 34.4003 24.8803 33.7758 23.8507 32.7088C22.8211 31.6419 22.247 30.2161 22.25 28.7334C22.2667 25.5667 24.8167 23 28 23C31.1667 23 33.7333 25.5667 33.7333 28.7334C33.7324 30.2178 33.1548 31.6438 32.1224 32.7104C31.09 33.777 29.6836 34.4008 28.2 34.45ZM22.7833 37.9C20.2667 39.5834 20.2667 42.35 22.7833 44.0167C25.65 45.9334 30.35 45.9334 33.2167 44.0167C35.7333 42.3334 35.7333 39.5667 33.2167 37.9C30.3667 35.9834 25.6667 35.9834 22.7833 37.9Z" fill="#001D6E"/>
</svg>
