<svg width="56" height="56" viewBox="0 0 56 56" fill="none" xmlns="http://www.w3.org/2000/svg">
<circle cx="28" cy="28" r="28" fill="#FEE2C5" fill-opacity="0.4"/>
<path d="M39.95 19.0667C39.2333 15.45 36.55 13.8667 32.8167 13.8667H18.1833C13.7833 13.8667 10.85 16.0667 10.85 21.2V29.7834C10.85 33.4834 12.3667 35.65 14.8667 36.5834C15.2333 36.7167 15.6333 36.8334 16.05 36.9C16.7167 37.05 17.4333 37.1167 18.1833 37.1167H32.8333C37.2333 37.1167 40.1667 34.9167 40.1667 29.7834V21.2C40.1667 20.4167 40.1 19.7167 39.95 19.0667ZM17.2167 28C17.2167 28.6834 16.65 29.25 15.9667 29.25C15.2833 29.25 14.7167 28.6834 14.7167 28V23C14.7167 22.3167 15.2833 21.75 15.9667 21.75C16.65 21.75 17.2167 22.3167 17.2167 23V28ZM25.5 29.9C23.0667 29.9 21.1 27.9334 21.1 25.5C21.1 23.0667 23.0667 21.1 25.5 21.1C27.9333 21.1 29.9 23.0667 29.9 25.5C29.9 27.9334 27.9333 29.9 25.5 29.9ZM36.2667 28C36.2667 28.6834 35.7 29.25 35.0167 29.25C34.3333 29.25 33.7667 28.6834 33.7667 28V23C33.7667 22.3167 34.3333 21.75 35.0167 21.75C35.7 21.75 36.2667 22.3167 36.2667 23V28Z" fill="#001D6E"/>
<path d="M45.17 26.1967V34.7801C45.17 39.9134 42.2367 42.1301 37.82 42.1301H23.1867C21.9367 42.1301 20.82 41.9467 19.8533 41.5801C19.07 41.2967 18.3867 40.8801 17.8367 40.3467C17.5367 40.0634 17.77 39.6134 18.1867 39.6134H32.82C38.9867 39.6134 42.6533 35.9467 42.6533 29.7967V21.1967C42.6533 20.7967 43.1033 20.5467 43.3867 20.8467C44.52 22.0467 45.17 23.7967 45.17 26.1967Z" fill="#001D6E"/>
</svg>
