<svg width="215" height="60" viewBox="0 0 215 60" fill="none" xmlns="http://www.w3.org/2000/svg">
<path d="M48.1523 6.11502C43.6175 2.66857 38.1952 0.584322 32.5194 0.105978C26.8437 -0.372365 21.149 0.77496 16.1013 3.41381C11.0535 6.05266 6.86136 10.074 4.01486 15.0076C1.16836 19.9412 -0.214814 25.5832 0.0270613 31.2739C0.268937 36.9647 2.12586 42.469 5.38073 47.1433C8.6356 51.8176 13.1539 55.4686 18.4073 57.6697C23.6608 59.8707 29.4322 60.5307 35.0469 59.5724C40.6616 58.6142 45.8875 56.0774 50.1136 52.2585L46.7584 48.5456C43.2373 51.7274 38.8832 53.841 34.2051 54.6394C29.5269 55.4378 24.7182 54.8879 20.3411 53.054C15.964 51.2202 12.1994 48.1781 9.48751 44.2836C6.77559 40.389 5.22842 35.8029 5.02689 31.0614C4.82537 26.32 5.97781 21.6191 8.34948 17.5085C10.7212 13.3979 14.214 10.0474 18.4197 7.84869C22.6255 5.65003 27.3702 4.6941 32.0992 5.09265C36.8281 5.4912 41.3459 7.22777 45.1243 10.0993L48.1523 6.11502Z" fill="#001D6E"/>
<path d="M42.5895 14.4596C39.6416 12.0714 36.0752 10.571 32.3066 10.1335C28.538 9.69591 24.7227 10.3393 21.306 11.9885C17.8894 13.6377 15.0122 16.2246 13.0105 19.4475C11.0087 22.6703 9.96491 26.396 10.0009 30.1897C10.0369 33.9834 11.1512 37.6887 13.2137 40.8729C15.2762 44.0572 18.2019 46.5891 21.6493 48.1732C25.0966 49.7573 28.9235 50.3282 32.683 49.8192C36.4426 49.3103 39.9799 47.7425 42.882 45.2988L33.159 33.7517C32.4473 34.3509 31.5799 34.7354 30.658 34.8602C29.736 34.985 28.7976 34.845 27.9522 34.4565C27.1068 34.0681 26.3894 33.4472 25.8836 32.6663C25.3778 31.8855 25.1045 30.9768 25.0957 30.0465C25.0869 29.1162 25.3428 28.2026 25.8337 27.4122C26.3246 26.6219 27.0302 25.9875 27.868 25.5831C28.7059 25.1787 29.6415 25.0209 30.5656 25.1282C31.4898 25.2355 32.3644 25.6035 33.0873 26.1891L42.5895 14.4596Z" fill="#7FB5FF"/>
<path d="M77.7812 24.8125C77.8229 24.5208 77.8438 24.0938 77.8438 23.5312C77.8438 22.9688 77.7344 22.4583 77.5156 22C77.2969 21.5312 77 21.1667 76.625 20.9062C75.9688 20.4583 74.9792 20.2344 73.6562 20.2344C72.3438 20.2344 71.1823 20.474 70.1719 20.9531C69.1719 21.4219 68.3333 22.0833 67.6562 22.9375C66.2917 24.6562 65.6094 26.9948 65.6094 29.9531C65.6094 32.7552 66.3021 34.9896 67.6875 36.6562C69.125 38.3958 71.0677 39.2656 73.5156 39.2656C75.9219 39.2656 77.7969 38.7396 79.1406 37.6875C79.5469 37.375 79.9167 37.0365 80.25 36.6719C80.5625 36.7656 80.8177 37.0417 81.0156 37.5C81.0781 37.6562 81.1094 37.8646 81.1094 38.125C81.1094 38.375 80.9219 38.75 80.5469 39.25C80.1823 39.7396 79.6458 40.2135 78.9375 40.6719C77.25 41.776 75.2292 42.3281 72.875 42.3281C69.5 42.3281 66.8125 41.3021 64.8125 39.25C62.8333 37.2396 61.8438 34.5469 61.8438 31.1719C61.8438 29.1094 62.1719 27.25 62.8281 25.5938C63.4844 23.9375 64.3802 22.5312 65.5156 21.375C66.651 20.2083 67.974 19.3125 69.4844 18.6875C71.0052 18.0625 72.4792 17.75 73.9062 17.75C75.3438 17.75 76.4948 17.8698 77.3594 18.1094C78.224 18.349 78.9427 18.6771 79.5156 19.0938C80.6615 19.9479 81.2344 21.0833 81.2344 22.5C81.2344 23.5833 80.8333 24.349 80.0312 24.7969C79.7604 24.9531 79.4688 25.0312 79.1562 25.0312C78.5104 25.0312 78.0521 24.9583 77.7812 24.8125ZM84.3281 33.375C84.3281 32.1042 84.4531 30.9635 84.7031 29.9531C84.9531 28.9427 85.2969 28.0521 85.7344 27.2812C86.1719 26.5104 86.6875 25.8542 87.2812 25.3125C87.875 24.7604 88.5104 24.3125 89.1875 23.9688C90.5104 23.2917 91.9635 22.9531 93.5469 22.9531C95.5781 22.9531 97.3021 23.6927 98.7188 25.1719C100.292 26.7969 101.078 28.9427 101.078 31.6094C101.078 35.1094 100.125 37.8333 98.2188 39.7812C96.5625 41.4583 94.5781 42.2969 92.2656 42.2969C89.849 42.2969 87.9115 41.4479 86.4531 39.75C85.0365 38.1146 84.3281 35.9896 84.3281 33.375ZM93.1875 39.75C93.8854 39.75 94.5104 39.5885 95.0625 39.2656C95.6146 38.9323 96.0833 38.4792 96.4688 37.9062C97.2396 36.7188 97.625 35.1771 97.625 33.2812C97.625 31.1979 97.2188 29.4271 96.4062 27.9688C95.4896 26.2917 94.1719 25.4531 92.4531 25.4531C91.0677 25.4531 89.9583 25.9844 89.125 27.0469C88.2396 28.1719 87.7969 29.7448 87.7969 31.7656C87.7969 34.2969 88.3542 36.2969 89.4688 37.7656C90.4688 39.0885 91.7083 39.75 93.1875 39.75ZM117.797 24.6406C117.797 22.2552 116.948 20.7604 115.25 20.1562C114.667 19.9479 113.984 19.8438 113.203 19.8438C112.422 19.8438 111.75 19.9323 111.188 20.1094C110.625 20.2865 110.156 20.526 109.781 20.8281C109.021 21.4427 108.641 22.2552 108.641 23.2656C108.641 24.7969 109.766 26.1042 112.016 27.1875L113.969 28.1094C114.917 28.5469 115.828 28.9948 116.703 29.4531C117.589 29.901 118.37 30.4167 119.047 31C120.536 32.2708 121.281 33.8438 121.281 35.7188C121.281 37.7292 120.406 39.349 118.656 40.5781C117.021 41.724 114.969 42.2969 112.5 42.2969C110.542 42.2969 108.812 41.9896 107.312 41.375C106.208 40.9375 105.422 40.3177 104.953 39.5156C104.714 39.1094 104.594 38.6146 104.594 38.0312C104.594 36.8646 104.885 35.776 105.469 34.7656C105.667 34.526 105.938 34.4062 106.281 34.4062C106.948 34.4062 107.333 34.6042 107.438 35C107.573 36.8021 108.125 38.1146 109.094 38.9375C110.073 39.7604 111.438 40.1719 113.188 40.1719C115.198 40.1719 116.547 39.5156 117.234 38.2031C117.474 37.7448 117.594 37.2083 117.594 36.5938C117.594 35.9688 117.427 35.4115 117.094 34.9219C116.76 34.4323 116.318 33.9792 115.766 33.5625C114.922 32.9375 113.802 32.3333 112.406 31.75C111.021 31.1667 109.938 30.6562 109.156 30.2188C108.385 29.7812 107.703 29.2708 107.109 28.6875C105.818 27.4167 105.172 25.849 105.172 23.9844C105.172 22.0781 105.99 20.5521 107.625 19.4062C109.198 18.3021 111.229 17.75 113.719 17.75C116.875 17.75 118.938 18.401 119.906 19.7031C120.26 20.1719 120.438 20.7865 120.438 21.5469C120.438 22.3073 120.365 22.9688 120.219 23.5312C120.083 24.0938 119.948 24.4583 119.812 24.625C119.583 24.9062 119.188 25.0469 118.625 25.0469C118.073 25.0469 117.797 24.9115 117.797 24.6406ZM136.016 40.0156C134.495 41.5365 132.656 42.2969 130.5 42.2969C128.833 42.2969 127.5 41.8177 126.5 40.8594C125.49 39.8906 124.984 38.6354 124.984 37.0938C124.984 35.1771 125.839 33.7396 127.547 32.7812C129.089 31.9062 131.26 31.4688 134.062 31.4688H136.016C136.026 31.0729 136.031 30.6875 136.031 30.3125V29.1406C136.031 27.7448 135.828 26.7604 135.422 26.1875C134.964 25.5417 134.182 25.2188 133.078 25.2188C130.547 25.2188 129.245 26.125 129.172 27.9375C129.161 28.2188 129.167 28.4531 129.188 28.6406C128.979 28.8073 128.625 28.8906 128.125 28.8906C127.635 28.8906 127.276 28.8333 127.047 28.7188C126.828 28.6042 126.635 28.4479 126.469 28.25C126.115 27.8438 125.938 27.3281 125.938 26.7031C125.938 26.0677 126.12 25.5156 126.484 25.0469C126.859 24.5677 127.365 24.1771 128 23.875C129.24 23.2604 130.703 22.9531 132.391 22.9531C134.078 22.9531 135.344 23.1198 136.188 23.4531C137.042 23.776 137.719 24.2083 138.219 24.75C139.104 25.7083 139.547 26.9948 139.547 28.6094L139.391 36.1094C139.391 37.474 139.453 38.3385 139.578 38.7031C139.714 39.0677 139.87 39.3125 140.047 39.4375C140.234 39.5625 140.458 39.625 140.719 39.625C140.99 39.625 141.208 39.5833 141.375 39.5L141.812 39.2969C141.958 39.2448 142.083 39.3073 142.188 39.4844C142.302 39.651 142.359 39.8021 142.359 39.9375C142.359 40.0625 142.302 40.2292 142.188 40.4375C142.083 40.6458 141.88 40.8698 141.578 41.1094C141.286 41.3385 140.953 41.5417 140.578 41.7188C138.505 42.6979 137.094 42.4688 136.344 41.0312C136.188 40.75 136.078 40.4115 136.016 40.0156ZM135.969 37.9688C135.969 36.4688 135.979 34.9792 136 33.5C133.833 33.5833 132.359 33.724 131.578 33.9219C130.807 34.1094 130.25 34.2917 129.906 34.4688C129.562 34.6458 129.292 34.8542 129.094 35.0938C128.771 35.4896 128.609 36.0885 128.609 36.8906C128.609 37.6823 128.891 38.3177 129.453 38.7969C130.016 39.2656 130.823 39.5 131.875 39.5C133.365 39.5 134.729 38.9896 135.969 37.9688ZM150.234 41.2344C146.755 32.151 144.964 27.4635 144.859 27.1719C144.755 26.8698 144.646 26.5938 144.531 26.3438C144.271 25.7604 144.036 25.4688 143.828 25.4688C143.693 25.4688 143.542 25.4844 143.375 25.5156C143.208 25.5469 143.073 25.4896 142.969 25.3438C142.865 25.1979 142.812 25.0156 142.812 24.7969C142.812 24.5781 142.911 24.3542 143.109 24.125C143.318 23.8958 143.573 23.6979 143.875 23.5312C144.531 23.1458 145.052 22.9531 145.438 22.9531C145.823 22.9531 146.13 22.9635 146.359 22.9844C146.589 23.0052 146.802 23.0833 147 23.2188C147.417 23.4896 147.766 24.0729 148.047 24.9688L152.625 38.625C153.354 37.1562 153.896 36.0312 154.25 35.25L155.219 32.9688C156.385 30.0938 156.969 28.0729 156.969 26.9062V26.7031C156.969 26.1823 156.849 25.7708 156.609 25.4688C156.38 25.1667 155.969 24.9844 155.375 24.9219C155.271 24.7552 155.219 24.5833 155.219 24.4062C155.219 24.2188 155.318 24.0365 155.516 23.8594C155.724 23.6719 155.984 23.5104 156.297 23.375C156.943 23.0938 157.646 22.9531 158.406 22.9531C159.177 22.9531 159.771 23.0729 160.188 23.3125C160.615 23.5417 160.828 24 160.828 24.6875C160.828 26.1458 159.839 29.0469 157.859 33.3906L156.438 36.375C155.458 38.3542 154.719 39.6979 154.219 40.4062C153.323 41.6667 152.536 42.2969 151.859 42.2969C151.37 42.2969 150.932 42.1042 150.547 41.7188C150.411 41.5833 150.307 41.4219 150.234 41.2344ZM163.719 33.5938C163.719 32.3333 163.849 31.2135 164.109 30.2344C164.37 29.2552 164.719 28.3802 165.156 27.6094C165.604 26.8281 166.125 26.1458 166.719 25.5625C167.323 24.9792 167.969 24.4948 168.656 24.1094C170.01 23.3385 171.344 22.9531 172.656 22.9531C173.969 22.9531 175.021 23.1875 175.812 23.6562C176.604 24.1146 177.25 24.7292 177.75 25.5C178.677 26.9688 179.141 28.9219 179.141 31.3594C179.141 32.2656 178.76 32.7292 178 32.75L167.094 32.9844C167.156 35.2448 167.74 36.9167 168.844 38C169.781 38.9167 170.995 39.375 172.484 39.375C174.703 39.375 176.505 38.9115 177.891 37.9844C177.984 37.9844 178.099 38.0625 178.234 38.2188C178.495 38.5312 178.625 38.8021 178.625 39.0312C178.625 39.5312 178 40.1719 176.75 40.9531C175.312 41.849 173.635 42.2969 171.719 42.2969C169.219 42.2969 167.255 41.5 165.828 39.9062C164.422 38.3438 163.719 36.2396 163.719 33.5938ZM167.188 30.9688C170.188 30.8229 172.932 30.6302 175.422 30.3906C175.536 27.0781 174.391 25.4219 171.984 25.4219C170.641 25.4219 169.542 25.9427 168.688 26.9844C167.906 27.9427 167.406 29.2708 167.188 30.9688ZM191.266 42.0781C191.047 42.026 190.714 42 190.266 42H184.969C183.969 42 183.328 41.8229 183.047 41.4688C182.932 41.3333 182.875 41.1771 182.875 41C182.875 40.5625 182.958 40.2396 183.125 40.0312C183.375 40.1146 183.604 40.1562 183.812 40.1562C184.031 40.1562 184.214 40.1302 184.359 40.0781C184.505 40.0156 184.62 39.9167 184.703 39.7812C184.849 39.5312 184.922 39.0417 184.922 38.3125V28.0938C184.922 27.1146 184.74 26.5052 184.375 26.2656C184.229 26.1719 184.036 26.125 183.797 26.125C183.557 26.125 183.365 26.1615 183.219 26.2344C183.083 26.3073 182.969 26.3594 182.875 26.3906C182.792 26.4219 182.719 26.4219 182.656 26.3906C182.594 26.349 182.531 26.2917 182.469 26.2188C182.312 26.0312 182.234 25.8542 182.234 25.6875C182.234 25.5104 182.297 25.3229 182.422 25.125C182.557 24.9167 182.771 24.6823 183.062 24.4219C183.354 24.151 183.688 23.9062 184.062 23.6875C184.906 23.1979 185.75 22.9531 186.594 22.9531C187.552 22.9531 188.12 23.5781 188.297 24.8281C188.349 25.1927 188.38 25.5729 188.391 25.9688C189.911 24.625 191.479 23.7031 193.094 23.2031C193.635 23.0365 194.125 22.9531 194.562 22.9531C195.01 22.9531 195.375 23.0156 195.656 23.1406C195.948 23.2656 196.177 23.4375 196.344 23.6562C196.656 24.0833 196.812 24.6302 196.812 25.2969C196.812 25.9635 196.781 26.4948 196.719 26.8906C196.656 27.2865 196.578 27.6354 196.484 27.9375C196.297 28.5521 196.12 28.9427 195.953 29.1094C195.661 29.4115 195.271 29.5625 194.781 29.5625C194.281 29.5625 194.031 29.4167 194.031 29.125C194.031 28.0104 193.984 27.2969 193.891 26.9844C193.714 26.4115 193.38 26.125 192.891 26.125C192.401 26.125 191.958 26.1823 191.562 26.2969C191.167 26.401 190.781 26.5469 190.406 26.7344C189.646 27.1094 188.979 27.5938 188.406 28.1875V38.5781C188.438 39.401 188.797 39.901 189.484 40.0781C189.682 40.1302 189.906 40.1771 190.156 40.2188C190.406 40.2604 190.62 40.3125 190.797 40.375C190.984 40.4271 191.13 40.4896 191.234 40.5625C191.411 40.6979 191.5 40.9167 191.5 41.2188C191.5 41.5938 191.422 41.8802 191.266 42.0781ZM209.781 28.5C209.781 26.8958 209.115 25.8333 207.781 25.3125C207.354 25.1458 206.891 25.0625 206.391 25.0625C205.901 25.0625 205.443 25.1042 205.016 25.1875C204.599 25.2708 204.229 25.401 203.906 25.5781C203.177 25.974 202.812 26.5417 202.812 27.2812C202.812 27.9896 203.115 28.6042 203.719 29.125C204.385 29.6771 205.625 30.3594 207.438 31.1719C209.25 31.974 210.646 32.8542 211.625 33.8125C212.615 34.7604 213.109 35.8542 213.109 37.0938C213.109 38.4896 212.536 39.6667 211.391 40.625C210.047 41.7396 208.188 42.2969 205.812 42.2969C202.906 42.2969 200.896 41.6771 199.781 40.4375C199.396 40 199.203 39.4427 199.203 38.7656C199.203 37.1302 199.604 36.1771 200.406 35.9062C200.604 35.8438 200.792 35.8125 200.969 35.8125C201.458 35.8125 201.724 35.9635 201.766 36.2656C201.995 38.8698 203.453 40.1719 206.141 40.1719C207.755 40.1719 208.833 39.7188 209.375 38.8125C209.552 38.5208 209.641 38.1667 209.641 37.75C209.641 37.3333 209.505 36.9531 209.234 36.6094C208.974 36.2656 208.609 35.9479 208.141 35.6562C207.672 35.3542 207.115 35.0625 206.469 34.7812L204.391 33.8438C201.203 32.3854 199.609 30.4479 199.609 28.0312C199.609 26.4688 200.302 25.2188 201.688 24.2812C203 23.3958 204.693 22.9531 206.766 22.9531C209.578 22.9531 211.328 23.5625 212.016 24.7812C212.193 25.0938 212.281 25.4375 212.281 25.8125C212.281 26.1875 212.26 26.526 212.219 26.8281C212.177 27.1198 212.125 27.3854 212.062 27.625C211.958 28.0833 211.839 28.4062 211.703 28.5938C211.432 28.7917 211.042 28.8906 210.531 28.8906C210.031 28.8906 209.781 28.7604 209.781 28.5Z" fill="url(#paint0_linear_1_63)"/>
<defs>
<linearGradient id="paint0_linear_1_63" x1="66.2927" y1="42" x2="209.763" y2="39.3663" gradientUnits="userSpaceOnUse">
<stop stop-color="#001D6E"/>
<stop offset="0.403784" stop-color="#5481FF"/>
<stop offset="1" stop-color="#001D6E" stop-opacity="0.99"/>
</linearGradient>
</defs>
</svg>
