<svg width="56" height="56" viewBox="0 0 56 56" fill="none" xmlns="http://www.w3.org/2000/svg">
<circle cx="28" cy="28" r="28" fill="#FEE2C5" fill-opacity="0.4"/>
<path d="M26.75 38.4168H23C21.1667 38.4168 19.6667 39.9168 19.6667 41.7501V42.1668H18C17.3167 42.1668 16.75 42.7334 16.75 43.4168C16.75 44.1001 17.3167 44.6668 18 44.6668H38C38.6833 44.6668 39.25 44.1001 39.25 43.4168C39.25 42.7334 38.6833 42.1668 38 42.1668H36.3333V41.7501C36.3333 39.9168 34.8333 38.4168 33 38.4168H29.25V34.6001C28.8333 34.6501 28.4167 34.6668 28 34.6668C27.5833 34.6668 27.1667 34.6501 26.75 34.6001V38.4168Z" fill="#001D6E"/>
<path d="M38.8 27.3999C39.9 26.9833 40.8667 26.2999 41.6333 25.5333C43.1833 23.8166 44.2 21.7666 44.2 19.3666C44.2 16.9666 42.3167 15.0833 39.9167 15.0833H38.9833C38.4379 13.96 37.5877 13.0128 36.5297 12.3497C35.4717 11.6867 34.2486 11.3344 33 11.3333H23C20.3667 11.3333 18.1 12.8666 17.0167 15.0833H16.0833C13.6833 15.0833 11.8 16.9666 11.8 19.3666C11.8 21.7666 12.8167 23.8166 14.3667 25.5333C15.1333 26.2999 16.1 26.9833 17.2 27.3999C18.0706 29.5498 19.5641 31.3904 21.4885 32.6852C23.4129 33.98 25.6805 34.67 28 34.6666C32.9 34.6666 37.0667 31.6666 38.8 27.3999ZM32.7333 22.0833L31.7 23.3499C31.5333 23.5333 31.4167 23.8999 31.4333 24.1499L31.5333 25.7833C31.6 26.7833 30.8833 27.2999 29.95 26.9333L28.4333 26.3333C28.1504 26.2499 27.8495 26.2499 27.5667 26.3333L26.05 26.9333C25.1167 27.2999 24.4 26.7833 24.4667 25.7833L24.5667 24.1499C24.573 23.8604 24.4787 23.5777 24.3 23.3499L23.2667 22.0833C22.6167 21.3166 22.9 20.4666 23.8667 20.2166L25.45 19.8166C25.7 19.7499 26 19.5166 26.1333 19.2999L27.0167 17.9333C27.5667 17.0833 28.4333 17.0833 28.9833 17.9333L29.8667 19.2999C30 19.5166 30.3 19.7499 30.55 19.8166L32.1333 20.2166C33.1 20.4666 33.3833 21.3166 32.7333 22.0833Z" fill="#001D6E"/>
</svg>
