<svg width="225" height="39" viewBox="0 0 225 39" fill="none" xmlns="http://www.w3.org/2000/svg">
<g clip-path="url(#clip0_1_188)">
<path d="M50.5825 8.34176C50.8017 12.4102 48.1048 15.8976 44.3629 16.9437C44.3124 16.977 44.2787 16.9936 44.245 17.0102C40.5874 17.9734 37.8905 21.2614 37.8905 25.1804C37.8905 25.2137 37.8568 25.2635 37.8231 25.3133C37.3006 29.4815 33.6767 32.7031 29.3113 32.7031H29.1427C24.7772 32.7031 21.1533 29.4815 20.6308 25.3133C20.5803 25.2469 20.5634 25.2137 20.5634 25.1804C20.5634 21.278 17.8666 17.9734 14.209 17.0102C14.1753 16.9936 14.1416 16.977 14.091 16.9437C10.3492 15.8976 7.65233 12.4102 7.87143 8.34176C8.09059 4.12373 11.529 0.669637 15.8102 0.370725C20.8331 0.021994 25.0132 3.94107 25.0132 8.80668C25.0132 8.85653 25.0132 8.92297 25.0132 8.97274C25.2492 10.7828 26.0582 12.4601 27.3055 13.7553C28.3505 14.8348 30.0866 14.8348 31.1317 13.7553C32.3789 12.4601 33.2048 10.7828 33.4239 8.97274C33.4239 8.92297 33.4239 8.85653 33.4239 8.80668C33.4239 3.94107 37.604 0.021994 42.6269 0.370725C46.8912 0.669637 50.3465 4.12373 50.5825 8.34176Z" fill="#00B8C2"/>
<path d="M49.6555 38.0005C54.3937 38.0005 58.2348 34.2162 58.2348 29.5479C58.2348 24.8797 54.3937 21.0954 49.6555 21.0954C44.9173 21.0954 41.0762 24.8797 41.0762 29.5479C41.0762 34.2162 44.9173 38.0005 49.6555 38.0005Z" fill="#FDB515"/>
<path d="M8.57932 38.0835C13.3175 38.0835 17.1586 34.2992 17.1586 29.6309C17.1586 24.9627 13.3175 21.1783 8.57932 21.1783C3.84108 21.1783 0 24.9627 0 29.6309C0 34.2992 3.84108 38.0835 8.57932 38.0835Z" fill="#FDB515"/>
<path d="M183.267 7.29563C185.249 7.29563 186.857 5.712 186.857 3.7585C186.857 1.805 185.249 0.221375 183.267 0.221375C181.284 0.221375 179.677 1.805 179.677 3.7585C179.677 5.712 181.284 7.29563 183.267 7.29563Z" fill="#063A4F"/>
<path d="M87.4614 30.478H81.3598C81.0053 30.478 80.7189 30.1957 80.7189 29.8469C80.7189 29.8303 80.7189 29.8138 80.7189 29.7806C80.7189 25.9279 80.7189 22.0918 80.7023 18.2392C80.6856 16.5952 79.8258 15.3995 78.4265 15.0176C76.3538 14.453 74.5669 15.5988 74.2803 17.6912C74.213 18.1893 74.1792 18.6875 74.1792 19.1858C74.1623 22.6897 74.1792 26.1936 74.1792 29.6975V29.8138C74.1792 30.1625 73.8926 30.4448 73.5387 30.4448H67.5382C67.1843 30.4448 66.8978 30.1625 66.8978 29.8138V9.53751C66.8978 9.1888 67.1843 8.90645 67.5382 8.90645H72.7802C73.1342 8.90645 73.4207 9.1888 73.4207 9.53751C73.4207 10.069 74.0275 10.3512 74.4658 10.0357C76.0667 8.80683 77.9045 8.37508 79.9098 8.39167C82.1689 8.39167 84.1409 9.00615 85.6576 10.6833C85.9106 10.9657 86.3485 10.949 86.6015 10.6833C87.7985 9.47107 89.2818 8.82342 90.9841 8.57433C94.0848 8.1094 97.0008 8.40827 99.4114 10.6502C100.928 12.0617 101.788 13.8552 101.923 15.8645C102.092 18.3056 102.058 20.7634 102.074 23.2044C102.092 25.3965 102.074 27.6051 102.074 29.8303C102.074 30.1791 101.788 30.4614 101.434 30.4614H95.3326C94.9788 30.4614 94.6917 30.1791 94.6917 29.8303C94.6917 29.8138 94.6917 29.7972 94.6917 29.7806C94.6917 25.9112 94.7424 22.042 94.6583 18.1893C94.5568 15.3995 92.3659 14.4862 90.2083 15.1006C88.8939 15.4825 88.1182 16.7778 88.1015 18.5381C88.0848 22.2911 88.1015 26.0275 88.1015 29.7806C88.1015 29.8138 88.1015 29.8303 88.1015 29.8636C88.1015 30.1957 87.8151 30.478 87.4614 30.478Z" fill="#063A4F"/>
<path d="M125.858 11.9951C123.363 9.23854 120.11 8.15914 116.436 8.15914C116.014 8.15914 115.592 8.14247 115.155 8.15914C114.851 8.17573 114.548 8.2255 114.261 8.27535C110.974 8.80679 108.193 10.2016 106.289 12.9583C104.417 15.6651 103.912 18.7041 104.485 21.9091C105.041 24.9812 106.592 27.4722 109.272 29.2158C111.851 30.893 114.716 31.4245 117.767 31.1754C120.245 30.9595 122.52 30.1624 124.492 28.618C127.054 26.6086 128.352 23.9018 128.639 20.7467C128.908 17.4752 128.099 14.4861 125.858 11.9951ZM116.469 24.8816C113.486 24.8816 111.446 22.756 111.446 19.6506C111.446 16.5785 113.469 14.4861 116.469 14.4861C119.469 14.4861 121.508 16.5951 121.508 19.6506C121.508 22.7394 119.452 24.865 116.469 24.8816Z" fill="#063A4F"/>
<path d="M152.455 30.4779H146.083C145.814 30.4779 145.611 30.262 145.611 30.0129V29.7804C145.611 26.2101 145.628 22.6397 145.595 19.086C145.595 18.4716 145.527 17.8406 145.375 17.2594C144.92 15.5489 143.521 14.7186 141.448 14.8515C139.83 14.9511 138.583 16.0803 138.364 17.7077C138.296 18.2059 138.262 18.7041 138.262 19.2023C138.245 22.7062 138.262 26.2101 138.262 29.7141V29.9963C138.262 30.262 138.043 30.4613 137.79 30.4613H131.453C131.183 30.4613 130.981 30.2454 130.981 29.9963V9.38798C130.981 9.12229 131.2 8.92305 131.453 8.92305H137.42C137.689 8.92305 137.892 9.13889 137.892 9.38798V9.68692C137.892 10.0855 138.38 10.3013 138.684 10.0356C138.869 9.86957 139.071 9.7201 139.274 9.5873C144.296 6.26602 151.494 9.18873 152.674 15.0341C152.842 15.8976 152.943 16.811 152.943 17.6911C152.977 21.7928 152.96 25.8946 152.96 29.9963C152.943 30.2786 152.724 30.4779 152.455 30.4779Z" fill="#063A4F"/>
<path d="M162.062 30.478H155.691C155.438 30.478 155.236 30.2787 155.236 30.0297V9.35485C155.236 9.10576 155.438 8.90644 155.691 8.90644H161.692C161.944 8.90644 162.146 9.10576 162.146 9.35485V9.72016C162.146 10.1021 162.618 10.318 162.905 10.0689C163.107 9.90288 163.309 9.73682 163.511 9.60394C168.535 6.2827 175.732 9.20538 176.911 15.0508C177.08 15.9143 177.181 16.8277 177.181 17.7078C177.215 21.8096 177.198 25.9112 177.198 30.013C177.198 30.2621 176.979 30.4614 176.743 30.4614H170.338C170.086 30.4614 169.883 30.2621 169.883 30.013C169.883 29.9466 169.883 29.8636 169.883 29.7972C169.883 26.2268 169.9 22.6565 169.866 19.1027C169.866 18.4883 169.798 17.8572 169.647 17.276C169.192 15.5656 167.793 14.7352 165.72 14.8681C164.102 14.9677 162.855 16.097 162.636 17.7244C162.568 18.2226 162.534 18.7208 162.534 19.219C162.517 22.7229 162.534 26.2268 162.534 29.7307V30.0462C162.517 30.2621 162.315 30.478 162.062 30.478Z" fill="#063A4F"/>
<path d="M224.999 8.87321C224.915 9.10571 224.864 9.28836 224.797 9.45442C220.904 19.0031 216.993 28.5351 213.1 38.1002H205.65C206.543 35.792 207.436 33.5003 208.346 31.2086C208.515 30.8101 208.499 30.4779 208.33 30.096C206.088 25.0643 203.846 20.0326 201.605 15.0009H200.289C200.003 15.0009 199.767 15.2334 199.767 15.5157V29.93C199.767 30.2123 199.531 30.4448 199.245 30.4448H192.907C192.62 30.4448 192.385 30.2123 192.385 29.93V15.5323C192.385 15.25 192.149 15.0175 191.862 15.0175H189.57C189.283 15.0175 189.047 14.785 189.047 14.5028V9.38806C189.047 9.10571 189.283 8.87321 189.57 8.87321H192.351C192.351 8.92306 192.351 8.93965 192.367 8.87321V8.82343C192.367 8.757 192.385 8.67396 192.385 8.54109C192.452 7.54474 192.536 6.49854 192.839 5.55199C193.733 2.77875 195.857 1.33401 198.621 0.686362C200.222 0.304419 203.189 0.271206 204.807 0.553512C204.925 0.570118 205.228 0.603331 205.515 0.636543C205.785 0.669756 205.987 0.885637 205.987 1.15134V5.90072C205.987 6.18303 205.751 6.41551 205.464 6.41551C204.486 6.41551 202.733 6.41551 202.228 6.41551C200.677 6.41551 199.835 7.21261 199.784 8.69056C199.784 8.67396 199.784 8.65737 199.784 8.64078C199.784 8.02631 199.784 8.55775 199.784 8.88987C199.784 9.08912 199.784 9.20533 199.784 8.88987C201.992 8.88987 204.149 8.88987 206.307 8.90647C206.374 8.90647 206.442 8.90647 206.492 8.90647H206.593C206.745 8.90647 206.964 9.15556 207.032 9.33821C208.65 13.1743 210.251 17.0103 211.869 20.8463C211.954 21.0622 212.055 21.2781 212.189 21.5936C212.88 19.8666 213.538 18.2391 214.178 16.5951C215.122 14.2038 216.083 11.8291 216.993 9.43783C217.162 9.00609 217.364 8.88987 217.836 8.88987C220.179 8.88987 222.539 8.87321 224.999 8.87321Z" fill="#063A4F"/>
<path d="M192.369 8.80684C192.369 8.82343 192.369 8.84002 192.369 8.85661H192.352C192.334 8.67396 192.369 8.09275 192.369 8.80684Z" fill="#063A4F"/>
<path d="M206.29 8.88985C204.133 8.87326 201.975 8.87326 199.767 8.87326C199.767 9.18879 199.767 9.0725 199.767 8.87326C199.767 8.55773 199.767 8.02636 199.767 8.62417C199.767 8.64076 199.767 8.65735 199.767 8.67402C199.767 8.72379 199.784 8.77364 199.801 8.85667H206.121C206.172 8.85667 206.239 8.87326 206.29 8.88985Z" fill="#063A4F"/>
<path d="M186.755 9.47106V29.8968C186.755 30.2123 186.502 30.4614 186.182 30.4614H180.08C179.76 30.4614 179.508 30.2123 179.508 29.8968V9.47106C179.508 9.15552 179.76 8.90643 180.08 8.90643H186.182C186.502 8.90643 186.755 9.15552 186.755 9.47106Z" fill="#063A4F"/>
</g>
<defs>
<clipPath id="clip0_1_188">
<rect width="225" height="37.8788" fill="white" transform="translate(0 0.221252)"/>
</clipPath>
</defs>
</svg>
