<svg width="151" height="65" viewBox="0 0 151 65" fill="none" xmlns="http://www.w3.org/2000/svg">
<g clip-path="url(#clip0_1_203)">
<path d="M139.458 63.9339V51.1792H141.65V57.5925L147.583 51.1792H150.274L145.088 56.6639L150.505 63.9339H147.85L143.591 58.1942L141.649 60.2346V63.9339H139.458ZM2.68567 63.9339H0.501953V50.0305H5.79411C8.93464 50.0305 10.8901 51.8529 10.8901 54.603V54.6429C10.8901 57.7026 8.49655 59.3156 5.5202 59.3156H2.68567V63.9339ZM2.68567 52.0476V57.319H5.5979C7.46492 57.319 8.66653 56.2423 8.66653 54.7032V54.6633C8.66653 52.9393 7.43869 52.0476 5.5979 52.0476H2.68567ZM13.1155 63.9339V51.1792H18.6748C20.2436 51.1792 21.4724 51.6533 22.2748 52.4545C22.9344 53.1466 23.3084 54.0948 23.3084 55.2056C23.3084 57.3375 22.0786 58.5943 20.333 59.1044L23.7008 63.9329H21.1169L18.0522 59.487H15.308V63.9329H13.1155V63.9339ZM15.308 57.502H18.5155C20.0834 57.502 21.081 56.6638 21.081 55.3701C21.081 53.9673 20.1183 53.2197 18.4971 53.2197H15.308V57.502ZM31.7693 64.1529C27.9381 64.1529 25.2658 61.1828 25.2658 57.5935C25.2658 53.9683 27.974 50.9612 31.8052 50.9612C35.6364 50.9612 38.3087 53.9313 38.3087 57.5205C38.3087 61.1458 35.6004 64.1529 31.7693 64.1529ZM31.8052 62.094C34.2822 62.094 36.0104 60.071 36.0104 57.5925C36.0104 55.078 34.2463 53.0191 31.7693 53.0191C29.2922 53.0191 27.5641 55.0411 27.5641 57.5196C27.565 60.0341 29.3291 62.094 31.8052 62.094ZM44.8996 64.0254L39.7143 51.1792H42.1379L45.8972 60.9823L49.639 51.1792H52.0092L46.8239 64.0254H44.8996ZM54.0948 63.9339V51.1792H56.2863V63.9339H54.0948ZM59.4394 63.9339V51.1792H64.0895C68.0091 51.1792 70.7183 53.9303 70.7183 57.5196C70.7183 61.1458 68.0101 63.9339 64.0895 63.9339H59.4394ZM61.6309 61.8934H64.0895C66.7084 61.8934 68.419 60.0895 68.419 57.5935C68.419 55.0605 66.7084 53.2206 64.0895 53.2206H61.6309V61.8934ZM78.3088 64.1344C75.0663 64.1344 72.9992 62.2215 72.9992 58.5222V51.1792H75.1906V58.4307C75.1906 60.7992 76.3845 62.0745 78.3447 62.0745C80.2875 62.0745 81.4804 60.8722 81.4804 58.5213V51.1782H83.6719V58.4122C83.6719 62.2215 81.5688 64.1344 78.3088 64.1344ZM90.8689 64.1159C88.9621 64.1159 87.1631 63.4413 85.6661 62.0755L86.9844 60.4721C88.1782 61.5284 89.372 62.13 90.9224 62.13C92.2765 62.13 93.1323 61.4923 93.1323 60.5266C93.1323 59.5794 92.634 59.0868 90.3172 58.5407C87.6624 57.8846 86.1654 57.0834 86.1654 54.7325C86.1654 52.509 87.947 50.9972 90.424 50.9972C92.2415 50.9972 93.685 51.5618 94.9498 52.6005L93.7744 54.2944C92.6515 53.4377 91.5295 52.9831 90.3891 52.9831C89.1059 52.9831 88.3579 53.6577 88.3579 54.4949C88.3579 55.5151 88.9281 55.9532 91.3158 56.5353C93.9531 57.1915 95.3248 58.1572 95.3248 60.2706C95.3238 62.6946 93.4878 64.1159 90.8689 64.1159ZM104.23 63.93H97.998V50.1395H104.034C105.581 50.1395 106.781 50.5747 107.537 51.3476C108.123 51.9463 108.425 52.6784 108.425 53.5915V53.6314C108.425 55.2513 107.606 56.0817 106.299 56.7768C107.976 57.3628 109.188 58.1611 109.188 60.1597V60.1996C109.188 62.608 107.257 63.93 104.23 63.93ZM100.142 52.0962V56.0457H103.544C105.112 56.0457 106.241 55.408 106.241 54.0306V53.9907C106.241 52.7991 105.297 52.0962 103.721 52.0962H100.142ZM100.142 57.9031V61.9723H104.249C105.917 61.9723 107.005 61.2937 107.005 59.9377V59.8978C107.005 58.6186 105.993 57.9031 104.073 57.9031H100.142ZM110.597 63.9339L116.085 51.0877H118.117L123.605 63.9339H121.289L120.024 60.8547H114.126L112.844 63.9339H110.597ZM114.928 58.8688H119.222L117.066 53.7667L114.928 58.8688ZM125.561 63.9339V51.1792H127.593L134.274 59.998V51.1792H136.43V63.9339H134.595L127.717 54.86V63.9339H125.561Z" fill="#2E434E"/>
<path fill-rule="evenodd" clip-rule="evenodd" d="M57.8318 12.6408L60.848 7.40535H90.2327L90.9865 8.71275L93.2489 12.6408H57.8318ZM62.002 5.40192L65.0211 0.161621H86.0586L89.0777 5.40192H62.002ZM86.0596 34.3671H68.8727C68.5405 34.3671 68.2607 34.5394 68.1082 34.7964L66.0148 38.4304H60.0427L64.9687 29.8803C65.1921 29.4918 65.7924 29.1774 66.3082 29.1774L89.0456 29.1832L86.0596 34.3671ZM93.2295 21.922L90.1997 27.1808H64.6471C64.3207 27.1808 64.0478 27.3424 63.8923 27.5867L61.8281 31.1692H55.856L60.7819 22.62C61.0054 22.2316 61.6057 21.9171 62.1215 21.9171L93.2295 21.922ZM60.4264 19.9195C60.1059 19.9195 59.8261 20.0918 59.6736 20.3488L57.6336 23.8894H51.6615L56.5865 15.3412C56.8099 14.9528 57.4102 14.6374 57.926 14.6374L94.4019 14.6452L95.9115 17.2648L94.3825 19.9186H60.4565L60.4264 19.9195Z" fill="#FDB813"/>
</g>
<defs>
<clipPath id="clip0_1_203">
<rect width="150" height="64" fill="white" transform="translate(0.5 0.160645)"/>
</clipPath>
</defs>
</svg>
