<svg width="56" height="56" viewBox="0 0 56 56" fill="none" xmlns="http://www.w3.org/2000/svg">
<circle cx="28" cy="28" r="28" fill="#FEE2C5" fill-opacity="0.4"/>
<path d="M44.6667 16.5166V35.4499C44.6667 37.8666 42.9333 38.8833 40.8167 37.7166L37.6 35.9166C37.4695 35.8434 37.3607 35.737 37.2846 35.6083C37.2085 35.4795 37.1678 35.3328 37.1667 35.1833V22.9833C37.1667 18.7499 33.7167 15.2999 29.4833 15.2999H22.7C22.0833 15.2999 21.65 14.6499 21.9333 14.1166C22.8 12.4666 24.5333 11.3333 26.5167 11.3333H39.4833C42.3333 11.3333 44.6667 13.6666 44.6667 16.5166Z" fill="#001D6E"/>
<path d="M29.4833 17.7983H16.5167C15.1433 17.8027 13.8275 18.3502 12.8564 19.3214C11.8852 20.2925 11.3377 21.6083 11.3333 22.9817V41.915C11.3333 44.3317 13.0667 45.3483 15.1833 44.1817L21.7333 40.5317C22.4333 40.1483 23.5667 40.1483 24.2667 40.5317L30.8167 44.1817C32.9333 45.3483 34.6667 44.3317 34.6667 41.915V22.9817C34.6667 20.1317 32.3333 17.7983 29.4833 17.7983ZM26.3333 29.2483H24.25V31.3317C24.25 32.015 23.6833 32.5817 23 32.5817C22.3167 32.5817 21.75 32.015 21.75 31.3317V29.2483H19.6667C18.9833 29.2483 18.4167 28.6817 18.4167 27.9983C18.4167 27.315 18.9833 26.7483 19.6667 26.7483H21.75V24.665C21.75 23.9817 22.3167 23.415 23 23.415C23.6833 23.415 24.25 23.9817 24.25 24.665V26.7483H26.3333C27.0167 26.7483 27.5833 27.315 27.5833 27.9983C27.5833 28.6817 27.0167 29.2483 26.3333 29.2483Z" fill="#001D6E"/>
</svg>
