<svg width="57" height="57" viewBox="0 0 57 57" fill="none" xmlns="http://www.w3.org/2000/svg">
<circle cx="28" cy="28" r="28" fill="#FEE2C5" fill-opacity="0.4"/>
<g clip-path="url(#clip0_82_22)">
<path d="M23.2521 45.1487L21.2014 38.9969C20.624 37.2881 19.2923 35.9564 17.5834 35.3789L11.4198 33.3165C6.15186 31.5605 6.22257 24.0652 11.5377 22.427L14.3189 21.5785C14.7079 21.4489 15.1203 21.4607 15.4857 21.6139L37.0996 29.8163C37.9834 30.1581 38.4549 31.1245 38.172 32.0201L34.1297 45.0427C32.5034 50.346 25.008 50.4167 23.2521 45.1487ZM37.6063 27.4475L23.4524 22.0853C21.8614 21.4842 21.9321 19.1979 23.5585 18.703L33.9412 15.4856C38.3488 14.1185 42.4736 18.2433 41.1065 22.651L39.9633 26.3161C39.6452 27.2943 38.5845 27.8128 37.6063 27.4475V27.4475Z" fill="#001D6E"/>
</g>
<defs>
<clipPath id="clip0_82_22">
<rect width="40" height="40" fill="white" transform="translate(0 28.2843) rotate(-45)"/>
</clipPath>
</defs>
</svg>
