<svg width="69" height="93" viewBox="0 0 69 93" fill="none" xmlns="http://www.w3.org/2000/svg">
<path d="M0.0514914 92.2674L21.2655 83.1406L2.75445 69.3321L0.0514914 92.2674ZM50.2672 0.0325017C29.2163 22.1218 31.828 46.3481 40.2557 62.7937C44.4422 70.9631 50.1211 77.3436 55.185 80.645C57.6735 82.2674 60.2897 83.3264 62.6418 83.1649C63.8716 83.0805 65.0503 82.6573 66.0183 81.7943C66.9745 80.9418 67.5857 79.7852 67.9187 78.4644L64.04 77.4866C63.8535 78.2266 63.5809 78.6085 63.3564 78.8086C63.1438 78.9982 62.845 79.1416 62.3679 79.1743C61.3062 79.2472 59.5909 78.7425 57.3696 77.2943C53.0139 74.4546 47.7599 68.6665 43.8155 60.9695C35.9814 45.6822 33.539 23.3838 53.1629 2.79206L50.2672 0.0325017ZM67.9187 78.4644C68.9722 74.2854 69.2061 68.0074 68.1826 61.9803C67.169 56.0107 64.8367 49.7924 60.3151 46.2278C55.5557 42.4757 48.9838 42.0986 40.6581 46.5721C32.4189 50.999 22.1188 60.314 9.25228 76.5896L12.3902 79.0702C25.1437 62.9375 35.0356 54.1338 42.5513 50.0957C49.9805 46.104 54.7264 46.9154 57.8387 49.369C61.1889 52.0102 63.2823 57.0151 64.2391 62.6499C65.1861 68.2273 64.9354 73.9349 64.04 77.4866L67.9187 78.4644Z" fill="#7FB5FF"/>
</svg>
