<svg width="56" height="56" viewBox="0 0 56 56" fill="none" xmlns="http://www.w3.org/2000/svg">
<circle cx="28" cy="28" r="28" fill="#FEE2C5" fill-opacity="0.4"/>
<path d="M44.6666 39.6667V44.6667H11.3333V39.6667C11.3333 38.75 12.0833 38 13 38H43C43.9166 38 44.6666 38.75 44.6666 39.6667Z" fill="#001D6E" stroke="#001D6E" stroke-width="1.5" stroke-miterlimit="10" stroke-linecap="round" stroke-linejoin="round"/>
<path d="M19.6667 26.3334H16.3334V38.0001H19.6667V26.3334ZM26.3334 26.3334H23V38.0001H26.3334V26.3334ZM33 26.3334H29.6667V38.0001H33V26.3334ZM39.6667 26.3334H36.3334V38.0001H39.6667V26.3334ZM46.3334 45.9167H9.66669C8.98335 45.9167 8.41669 45.3501 8.41669 44.6667C8.41669 43.9834 8.98335 43.4167 9.66669 43.4167H46.3334C47.0167 43.4167 47.5834 43.9834 47.5834 44.6667C47.5834 45.3501 47.0167 45.9167 46.3334 45.9167ZM43.6167 17.5834L28.6167 11.5834C28.2834 11.4501 27.7167 11.4501 27.3834 11.5834L12.3834 17.5834C11.8 17.8167 11.3334 18.5001 11.3334 19.1334V24.6667C11.3334 25.5834 12.0834 26.3334 13 26.3334H43C43.9167 26.3334 44.6667 25.5834 44.6667 24.6667V19.1334C44.6667 18.5001 44.2 17.8167 43.6167 17.5834ZM28 22.1667C26.6167 22.1667 25.5 21.0501 25.5 19.6667C25.5 18.2834 26.6167 17.1667 28 17.1667C29.3834 17.1667 30.5 18.2834 30.5 19.6667C30.5 21.0501 29.3834 22.1667 28 22.1667Z" fill="#001D6E"/>
</svg>
